<svg width="131" height="25" viewBox="0 0 131 25" fill="none" xmlns="http://www.w3.org/2000/svg">
<path d="M2.304 17.672V4.328C2.304 3.768 2.248 3.368 2.136 3.128C2.04 2.872 1.864 2.712 1.608 2.648C1.368 2.568 1.04 2.528 0.624 2.528V2H6.456V2.528C6.008 2.528 5.648 2.568 5.376 2.648C5.104 2.712 4.904 2.872 4.776 3.128C4.664 3.368 4.608 3.768 4.608 4.328V18.944H8.112C9.056 18.944 9.792 18.856 10.32 18.68C10.864 18.488 11.248 18.104 11.472 17.528C11.712 16.936 11.848 16.04 11.88 14.84H12.504V20H0.624V19.472C1.04 19.472 1.368 19.44 1.608 19.376C1.864 19.312 2.04 19.152 2.136 18.896C2.248 18.64 2.304 18.232 2.304 17.672ZM15.9336 4.784C15.5176 4.784 15.1736 4.648 14.9016 4.376C14.6296 4.088 14.4936 3.744 14.4936 3.344C14.4936 2.928 14.6296 2.584 14.9016 2.312C15.1736 2.024 15.5176 1.88 15.9336 1.88C16.3656 1.88 16.7176 2.024 16.9896 2.312C17.2616 2.584 17.3976 2.928 17.3976 3.344C17.3976 3.744 17.2616 4.088 16.9896 4.376C16.7176 4.648 16.3656 4.784 15.9336 4.784ZM18.4056 20H13.7736V19.52C14.1416 19.52 14.4216 19.448 14.6136 19.304C14.8216 19.144 14.9256 18.744 14.9256 18.104V10.304C14.9256 9.728 14.9016 9.304 14.8536 9.032C14.8216 8.744 14.7176 8.568 14.5416 8.504C14.3656 8.424 14.0696 8.424 13.6536 8.504V8.048L17.1336 6.296V18.104C17.1336 18.744 17.2296 19.144 17.4216 19.304C17.6296 19.448 17.9576 19.52 18.4056 19.52V20ZM24.1695 20H19.5615V19.52C19.9455 19.52 20.2335 19.448 20.4255 19.304C20.6335 19.144 20.7375 18.744 20.7375 18.104V4.52C20.7375 4.024 20.7135 3.656 20.6655 3.416C20.6335 3.176 20.5295 3.032 20.3535 2.984C20.1775 2.92 19.8655 2.92 19.4175 2.984V2.504L22.9695 0.847999V18.104C22.9695 18.744 23.0655 19.144 23.2575 19.304C23.4495 19.448 23.7535 19.52 24.1695 19.52V20ZM27.4643 4.784C27.0483 4.784 26.6963 4.648 26.4083 4.376C26.1363 4.088 26.0003 3.744 26.0003 3.344C26.0003 2.928 26.1363 2.584 26.4083 2.312C26.6963 2.024 27.0483 1.88 27.4643 1.88C27.8963 1.88 28.2403 2.024 28.4963 2.312C28.7683 2.584 28.9043 2.928 28.9043 3.344C28.9043 3.744 28.7683 4.088 28.4963 4.376C28.2403 4.648 27.8963 4.784 27.4643 4.784ZM28.6643 6.296V19.52C28.6643 20.832 28.5283 21.88 28.2563 22.664C28.0003 23.448 27.6323 24.008 27.1523 24.344C26.6883 24.696 26.1523 24.872 25.5443 24.872C24.7603 24.872 24.1682 24.696 23.7682 24.344C23.3682 24.008 23.1682 23.616 23.1682 23.168C23.1682 22.848 23.2642 22.584 23.4562 22.376C23.6482 22.184 23.8962 22.088 24.2002 22.088C24.4722 22.088 24.7043 22.168 24.8963 22.328C25.0883 22.504 25.2563 22.736 25.4003 23.024C25.5283 23.28 25.6483 23.48 25.7603 23.624C25.8723 23.784 26.0483 23.864 26.2883 23.864C26.4963 23.864 26.6643 23.768 26.7923 23.576C26.9363 23.384 27.0083 23.136 27.0083 22.832C27.0083 22.416 26.9603 22 26.8643 21.584C26.7683 21.184 26.6723 20.68 26.5763 20.072C26.4803 19.464 26.4323 18.664 26.4323 17.672V10.304C26.4323 9.728 26.4083 9.304 26.3603 9.032C26.3283 8.744 26.2243 8.568 26.0483 8.504C25.8883 8.424 25.6003 8.424 25.1843 8.504V8.048L28.6643 6.296ZM36.4721 20.192C35.3041 20.192 34.3041 19.904 33.4721 19.328C32.6561 18.752 32.0241 17.984 31.5761 17.024C31.1441 16.048 30.9281 14.992 30.9281 13.856C30.9281 12.656 31.1041 11.6 31.4561 10.688C31.8081 9.76 32.2721 8.984 32.8481 8.36C33.4401 7.72 34.0881 7.24 34.7921 6.92C35.4961 6.6 36.2001 6.44 36.9041 6.44C37.8321 6.44 38.6481 6.664 39.3521 7.112C40.0561 7.56 40.6081 8.192 41.0081 9.008C41.4081 9.824 41.6081 10.792 41.6081 11.912H33.0641C33.0481 12.12 33.0401 12.336 33.0401 12.56C33.0401 13.776 33.2241 14.824 33.5921 15.704C33.9761 16.584 34.4961 17.264 35.1521 17.744C35.8081 18.208 36.5521 18.44 37.3841 18.44C38.2161 18.44 38.9521 18.168 39.5921 17.624C40.2321 17.08 40.7281 16.272 41.0801 15.2L41.6801 15.392C41.5201 16.272 41.2161 17.08 40.7681 17.816C40.3201 18.536 39.7361 19.112 39.0161 19.544C38.3121 19.976 37.4641 20.192 36.4721 20.192ZM36.5201 7.4C35.8321 7.4 35.1601 7.688 34.5041 8.264C33.8481 8.84 33.4081 9.744 33.1841 10.976H39.2561C39.1601 9.888 38.8801 9.024 38.4161 8.384C37.9521 7.728 37.3201 7.4 36.5201 7.4ZM47.8504 20H42.8584V19.52C43.2264 19.52 43.5064 19.448 43.6984 19.304C43.8904 19.144 43.9864 18.744 43.9864 18.104V10.304C43.9864 9.728 43.9704 9.304 43.9384 9.032C43.9064 8.744 43.8024 8.568 43.6264 8.504C43.4504 8.424 43.1544 8.424 42.7384 8.504V8.048L46.2184 6.296V9.32C46.4904 8.824 46.8024 8.352 47.1544 7.904C47.5064 7.456 47.8904 7.096 48.3064 6.824C48.7224 6.536 49.1624 6.392 49.6264 6.392C50.1384 6.392 50.5304 6.536 50.8024 6.824C51.0744 7.096 51.2104 7.44 51.2104 7.856C51.2104 8.224 51.1064 8.536 50.8984 8.792C50.6904 9.032 50.4024 9.152 50.0344 9.152C49.7624 9.152 49.5384 9.096 49.3624 8.984C49.1864 8.872 49.0184 8.76 48.8584 8.648C48.6984 8.536 48.4984 8.48 48.2584 8.48C47.9384 8.48 47.6024 8.704 47.2504 9.152C46.9144 9.6 46.5704 10.152 46.2184 10.808V18.104C46.2184 18.744 46.3304 19.144 46.5544 19.304C46.7784 19.448 47.2104 19.52 47.8504 19.52V20ZM57.4354 20.192C56.3474 20.192 55.3474 19.896 54.4354 19.304C53.5394 18.712 52.8194 17.904 52.2754 16.88C51.7474 15.84 51.4834 14.656 51.4834 13.328C51.4834 12 51.7474 10.816 52.2754 9.776C52.8194 8.736 53.5394 7.92 54.4354 7.328C55.3314 6.736 56.3314 6.44 57.4354 6.44C58.5234 6.44 59.5154 6.736 60.4114 7.328C61.3234 7.92 62.0434 8.736 62.5714 9.776C63.1154 10.816 63.3874 12 63.3874 13.328C63.3874 14.656 63.1234 15.84 62.5954 16.88C62.0674 17.904 61.3474 18.712 60.4354 19.304C59.5394 19.896 58.5394 20.192 57.4354 20.192ZM57.8434 19.208C58.4034 19.208 58.9234 19.048 59.4034 18.728C59.8994 18.392 60.2994 17.888 60.6034 17.216C60.9074 16.528 61.0594 15.656 61.0594 14.6C61.0594 13.656 60.9794 12.76 60.8194 11.912C60.6594 11.048 60.4114 10.28 60.0754 9.608C59.7394 8.936 59.3234 8.408 58.8274 8.024C58.3314 7.624 57.7474 7.424 57.0754 7.424C56.5314 7.424 56.0034 7.584 55.4914 7.904C54.9954 8.208 54.5874 8.688 54.2674 9.344C53.9634 10 53.8114 10.856 53.8114 11.912C53.8114 12.84 53.8914 13.736 54.0514 14.6C54.2274 15.464 54.4834 16.248 54.8194 16.952C55.1554 17.64 55.5714 18.192 56.0674 18.608C56.5794 19.008 57.1714 19.208 57.8434 19.208ZM70.8724 17.24C70.8724 16.68 70.7284 16.224 70.4404 15.872C70.1524 15.52 69.6964 15.136 69.0724 14.72L67.0084 13.328C66.3204 12.864 65.7764 12.336 65.3764 11.744C64.9924 11.152 64.8004 10.488 64.8004 9.752C64.8004 9.032 64.9684 8.432 65.3044 7.952C65.6564 7.456 66.1124 7.08 66.6724 6.824C67.2484 6.568 67.8644 6.44 68.5204 6.44C69.0164 6.44 69.4324 6.504 69.7684 6.632C70.1044 6.744 70.3844 6.864 70.6084 6.992C70.8324 7.104 71.0084 7.16 71.1364 7.16C71.4404 7.16 71.6164 6.992 71.6644 6.656H72.1924V10.592H71.6404C71.4484 9.472 71.0484 8.656 70.4404 8.144C69.8484 7.632 69.2004 7.376 68.4964 7.376C67.9044 7.376 67.4324 7.536 67.0804 7.856C66.7444 8.16 66.5764 8.56 66.5764 9.056C66.5764 9.552 66.7364 9.968 67.0564 10.304C67.3924 10.64 67.8244 10.992 68.3524 11.36L70.4404 12.8C71.1444 13.296 71.7284 13.816 72.1924 14.36C72.6564 14.888 72.8884 15.616 72.8884 16.544C72.8884 17.2 72.7204 17.808 72.3844 18.368C72.0484 18.912 71.5764 19.352 70.9684 19.688C70.3604 20.008 69.6564 20.168 68.8564 20.168C68.2164 20.168 67.6884 20.104 67.2724 19.976C66.8724 19.832 66.5444 19.688 66.2884 19.544C66.0484 19.4 65.8484 19.328 65.6884 19.328C65.4964 19.328 65.3524 19.408 65.2564 19.568C65.1764 19.712 65.1284 19.856 65.1124 20H64.5604V15.416H65.1364C65.2164 16.264 65.4404 16.976 65.8084 17.552C66.1764 18.112 66.6324 18.536 67.1764 18.824C67.7204 19.096 68.2804 19.232 68.8564 19.232C69.5444 19.232 70.0484 19.032 70.3684 18.632C70.7044 18.216 70.8724 17.752 70.8724 17.24ZM91.3262 17.528C91.6782 18.024 91.9742 18.408 92.2142 18.68C92.4542 18.952 92.6942 19.144 92.9342 19.256C93.1902 19.368 93.4942 19.44 93.8462 19.472V20H90.3422L88.8062 17.84C88.1662 18.512 87.4462 19.072 86.6462 19.52C85.8462 19.952 84.9662 20.168 84.0062 20.168C82.9022 20.168 81.9502 19.952 81.1502 19.52C80.3662 19.088 79.7582 18.52 79.3262 17.816C78.9102 17.096 78.7022 16.336 78.7022 15.536C78.7022 14.608 78.8862 13.8 79.2542 13.112C79.6382 12.424 80.1582 11.824 80.8142 11.312C81.4862 10.8 82.2382 10.36 83.0702 9.992C82.5582 9.4 82.1422 8.768 81.8222 8.096C81.5022 7.408 81.3422 6.696 81.3422 5.96C81.3422 5.144 81.5342 4.432 81.9182 3.824C82.3182 3.2 82.8462 2.712 83.5022 2.36C84.1742 2.008 84.9022 1.832 85.6862 1.832C86.3902 1.832 87.0382 1.968 87.6302 2.24C88.2222 2.496 88.6942 2.896 89.0462 3.44C89.4142 3.968 89.5982 4.648 89.5982 5.48C89.5982 6.36 89.2622 7.184 88.5902 7.952C87.9182 8.704 87.0062 9.368 85.8542 9.944L89.5742 15.08C89.8942 14.52 90.1662 13.92 90.3902 13.28C90.6302 12.624 90.7502 11.992 90.7502 11.384C90.7502 10.952 90.6382 10.656 90.4142 10.496C90.1902 10.32 89.7662 10.232 89.1422 10.232V9.728H93.9422V10.232C93.4462 10.232 93.0622 10.352 92.7902 10.592C92.5342 10.816 92.2862 11.28 92.0462 11.984C91.8062 12.656 91.5422 13.328 91.2542 14C90.9822 14.672 90.6382 15.344 90.2222 16.016L91.3262 17.528ZM83.3342 5.312C83.3342 5.968 83.5022 6.624 83.8382 7.28C84.1742 7.936 84.6542 8.6 85.2782 9.272C86.0142 8.872 86.6062 8.392 87.0542 7.832C87.5022 7.256 87.7262 6.512 87.7262 5.6C87.7262 4.768 87.5262 4.112 87.1262 3.632C86.7422 3.136 86.2222 2.888 85.5662 2.888C84.9262 2.888 84.3902 3.096 83.9582 3.512C83.5422 3.912 83.3342 4.512 83.3342 5.312ZM80.9822 14.792C80.9822 15.464 81.1422 16.08 81.4622 16.64C81.7822 17.2 82.2302 17.648 82.8062 17.984C83.3822 18.32 84.0542 18.488 84.8222 18.488C85.4302 18.488 86.0142 18.352 86.5742 18.08C87.1502 17.792 87.6782 17.416 88.1582 16.952L83.6702 10.712C82.8542 11.144 82.1982 11.68 81.7022 12.32C81.2222 12.96 80.9822 13.784 80.9822 14.792ZM107.33 20.288C106.194 20.288 105.154 20.056 104.21 19.592C103.282 19.128 102.474 18.496 101.786 17.696C101.114 16.88 100.594 15.944 100.226 14.888C99.8577 13.816 99.6737 12.68 99.6737 11.48C99.6737 9.928 99.8977 8.552 100.346 7.352C100.794 6.136 101.402 5.112 102.17 4.28C102.954 3.432 103.842 2.792 104.834 2.36C105.826 1.928 106.858 1.712 107.93 1.712C108.666 1.712 109.29 1.792 109.802 1.952C110.33 2.112 110.762 2.28 111.098 2.456C111.45 2.616 111.722 2.696 111.914 2.696C112.106 2.696 112.25 2.632 112.346 2.504C112.442 2.376 112.498 2.208 112.514 2H113.09V7.424H112.466C112.338 6.288 112.026 5.384 111.53 4.712C111.034 4.024 110.45 3.528 109.778 3.224C109.122 2.92 108.458 2.768 107.786 2.768C106.746 2.768 105.794 3.032 104.93 3.56C104.066 4.072 103.37 4.88 102.842 5.984C102.33 7.072 102.074 8.488 102.074 10.232C102.074 11.272 102.194 12.296 102.434 13.304C102.69 14.296 103.066 15.2 103.562 16.016C104.058 16.816 104.666 17.456 105.386 17.936C106.106 18.416 106.938 18.656 107.882 18.656C109.162 18.656 110.21 18.256 111.026 17.456C111.842 16.656 112.45 15.552 112.85 14.144L113.546 14.36C113.338 15.496 112.962 16.512 112.418 17.408C111.874 18.304 111.178 19.008 110.33 19.52C109.482 20.032 108.482 20.288 107.33 20.288ZM120.951 20.192C119.863 20.192 118.863 19.896 117.951 19.304C117.055 18.712 116.335 17.904 115.791 16.88C115.263 15.84 114.999 14.656 114.999 13.328C114.999 12 115.263 10.816 115.791 9.776C116.335 8.736 117.055 7.92 117.951 7.328C118.847 6.736 119.847 6.44 120.951 6.44C122.039 6.44 123.031 6.736 123.927 7.328C124.839 7.92 125.559 8.736 126.087 9.776C126.631 10.816 126.903 12 126.903 13.328C126.903 14.656 126.639 15.84 126.111 16.88C125.583 17.904 124.863 18.712 123.951 19.304C123.055 19.896 122.055 20.192 120.951 20.192ZM121.359 19.208C121.919 19.208 122.439 19.048 122.919 18.728C123.415 18.392 123.815 17.888 124.119 17.216C124.423 16.528 124.575 15.656 124.575 14.6C124.575 13.656 124.495 12.76 124.335 11.912C124.175 11.048 123.927 10.28 123.591 9.608C123.255 8.936 122.839 8.408 122.343 8.024C121.847 7.624 121.263 7.424 120.591 7.424C120.047 7.424 119.519 7.584 119.007 7.904C118.511 8.208 118.103 8.688 117.783 9.344C117.479 10 117.327 10.856 117.327 11.912C117.327 12.84 117.407 13.736 117.567 14.6C117.743 15.464 117.999 16.248 118.335 16.952C118.671 17.64 119.087 18.192 119.583 18.608C120.095 19.008 120.687 19.208 121.359 19.208ZM129.197 20.216C128.749 20.216 128.381 20.072 128.093 19.784C127.805 19.48 127.661 19.112 127.661 18.68C127.661 18.216 127.805 17.848 128.093 17.576C128.381 17.288 128.749 17.144 129.197 17.144C129.677 17.144 130.053 17.288 130.325 17.576C130.597 17.848 130.733 18.216 130.733 18.68C130.733 19.112 130.597 19.48 130.325 19.784C130.053 20.072 129.677 20.216 129.197 20.216Z" fill="black"/>
</svg>
