<svg width="99" height="88" viewBox="0 0 99 88" fill="none" xmlns="http://www.w3.org/2000/svg">
<path d="M49.5196 88C49.5196 88 5 66 0.0385121 13.3934C0.0385121 13.3934 18.0067 0.499961 49.5196 0.499965C81.0324 0.499969 99 13.3934 99 13.3934C92.5 64 49.5196 88 49.5196 88Z" fill="#F7F5F0"/>
<path d="M36.4781 51.6079H32.2307V22.7617H36.4781V51.6079Z" fill="black"/>
<path d="M50.3817 22.75H54.5842V51.5924H50.3817V22.75Z" fill="black"/>
<path d="M63.5924 61.0004H59.4423V33.7734H63.5924V61.0004Z" fill="black"/>
<path d="M41.28 33.6367H45.5687V51.6085H41.28V33.6367Z" fill="black"/>
<path d="M43.4187 31.1155C41.7819 31.1118 40.617 29.9226 40.6283 28.2735C40.6357 26.6544 41.8493 25.4652 43.4786 25.4727C45.0817 25.4802 46.2953 26.7217 46.2841 28.3334C46.2691 29.96 45.078 31.123 43.4225 31.1155H43.4187Z" fill="black"/>
<path d="M61.5474 31.1095C59.9929 31.1095 58.7681 29.8792 58.7794 28.3274C58.7906 26.7867 60.0491 25.5602 61.5961 25.5863C63.1055 25.6125 64.3153 26.8278 64.3303 28.3274C64.3453 29.8531 63.0905 31.1095 61.5474 31.1095Z" fill="black"/>
</svg>
