<svg width="176" height="20" viewBox="0 0 176 20" fill="none" xmlns="http://www.w3.org/2000/svg">
<path d="M125.044 15.0615H122.706C122.706 14.8468 122.706 14.6575 122.706 14.4663C122.702 12.7273 122.712 10.9884 122.691 9.24944C122.677 8.21506 122.088 7.59053 121.175 7.5632C120.241 7.53588 119.577 8.1409 119.548 9.18699C119.499 10.9415 119.518 12.6961 119.509 14.4506C119.509 14.6419 119.509 14.8351 119.509 15.0557H117.23C117.22 14.9229 117.2 14.7844 117.2 14.6439C117.2 11.8159 117.206 8.98792 117.19 6.15995C117.188 5.75206 117.309 5.61739 117.718 5.64081C118.253 5.67204 118.79 5.64862 119.339 5.64862C119.377 5.85354 119.404 6.00772 119.432 6.16971C121.049 4.97724 122.878 5.23877 124.247 6.60493C124.977 5.84378 125.873 5.42613 126.943 5.42027C128.895 5.41051 130.462 6.81767 130.521 8.75567C130.584 10.8186 130.535 12.8834 130.533 14.9464C130.533 14.9756 130.511 15.003 130.489 15.0576H128.262C128.262 14.6478 128.266 14.2633 128.262 13.8768C128.244 12.2531 128.272 10.6273 128.185 9.00549C128.132 8.01989 127.441 7.51246 126.498 7.57491C125.639 7.63346 125.052 8.28337 125.046 9.22798C125.036 10.9825 125.042 12.739 125.042 14.4936C125.042 14.6692 125.042 14.8449 125.042 15.0576L125.044 15.0615Z" fill="black"/>
<path d="M90.7482 15.0649H88.6347C88.615 14.8444 88.5973 14.6434 88.5698 14.3584C87.3418 15.3167 85.9997 15.5489 84.5593 15.1898C83.5596 14.94 82.737 14.3955 82.0876 13.6012C80.6491 11.8408 80.5724 9.24311 81.9263 7.38512C82.678 6.35464 83.6895 5.7262 84.9666 5.492C86.23 5.2617 87.3556 5.56811 88.4714 6.3156V0.0078125H90.7502V15.0649H90.7482ZM83.3766 10.3185C83.3254 11.8583 84.4117 13.0859 85.8758 13.1445C87.4087 13.205 88.5954 12.0906 88.6485 10.5429C88.7036 8.90742 87.6232 7.6564 86.1021 7.5959C84.6045 7.53735 83.4297 8.71225 83.3766 10.3204V10.3185Z" fill="black"/>
<path d="M135.094 6.37173C137.522 4.61133 140.093 5.59302 141.303 6.86746C142.918 8.56931 143.153 11.2802 141.84 13.2201C141.102 14.3131 140.081 15.0079 138.782 15.2557C137.511 15.4997 136.314 15.2752 135.177 14.4146V19.9573H132.904C132.894 19.7875 132.876 19.6314 132.876 19.4733C132.876 15.0508 132.882 10.6283 132.865 6.20584C132.865 5.755 132.99 5.58911 133.443 5.63986C133.734 5.67303 134.033 5.64571 134.327 5.64571C134.79 5.64571 135.045 5.88642 135.092 6.36783L135.094 6.37173ZM140.274 10.398C140.276 8.80741 139.136 7.59348 137.641 7.59348C136.149 7.59348 134.986 8.81912 134.988 10.3902C134.988 11.9691 136.127 13.144 137.658 13.1499C139.144 13.1557 140.27 11.9691 140.272 10.398H140.274Z" fill="black"/>
<path d="M66.3388 6.40604C66.3625 6.1211 66.3802 5.92007 66.3999 5.68392H68.5291V15.048H66.4018C66.3841 14.8568 66.3644 14.6557 66.3369 14.3669C65.2486 15.2022 64.0443 15.5067 62.7298 15.2783C61.4231 15.0519 60.3821 14.3884 59.6323 13.3032C58.3395 11.4277 58.4398 8.86319 59.8527 7.16719C60.6615 6.19526 61.6947 5.61952 62.9502 5.45167C64.1919 5.28578 65.3077 5.61952 66.3388 6.40799V6.40604ZM61.1397 10.3718C61.1299 11.9429 62.2555 13.1452 63.7452 13.151C65.2664 13.1569 66.3979 12.0112 66.4156 10.4401C66.4353 8.84172 65.3175 7.61998 63.8141 7.59461C62.3146 7.56923 61.1515 8.77927 61.1397 10.3718Z" fill="black"/>
<path d="M153.545 15.0592H151.427C151.408 14.8347 151.392 14.6337 151.366 14.3527C150.142 15.3285 148.794 15.5451 147.354 15.186C146.303 14.9245 145.447 14.339 144.794 13.4783C143.345 11.5696 143.422 8.85871 144.973 7.07488C146.596 5.20714 148.775 4.95732 151.372 6.36252C151.392 6.13418 151.41 5.92145 151.429 5.67944H153.543V15.0611L153.545 15.0592ZM146.185 10.3673C146.179 11.956 147.285 13.1407 148.779 13.1485C150.308 13.1563 151.463 11.9716 151.467 10.3908C151.473 8.82553 150.292 7.58622 148.802 7.59207C147.317 7.59598 146.191 8.7904 146.185 10.3673Z" fill="black"/>
<path d="M27.7017 11.0849H20.8024C20.7965 11.8597 21.4006 12.6169 22.2783 12.9624C23.522 13.4522 24.4725 13.1478 25.6906 11.8519C25.7536 11.8811 25.8303 11.9046 25.8952 11.9455C26.4187 12.2773 26.9382 12.6111 27.4932 12.9663C27.1665 13.6162 26.6962 14.106 26.1156 14.4749C24.3091 15.6244 22.4298 15.7025 20.6056 14.5901C18.8089 13.4932 18.132 11.7777 18.3662 9.74211C18.6338 7.41182 20.092 5.86415 22.2409 5.49333C24.9959 5.01712 27.501 6.97465 27.6978 9.77139C27.7273 10.1871 27.7017 10.6067 27.7017 11.0868V11.0849ZM25.2616 9.34007C25.1868 8.32325 24.2895 7.5055 23.2504 7.46256C21.9457 7.40792 20.9598 8.1476 20.7749 9.34007H25.2616Z" fill="black"/>
<path d="M40.3786 15.3331C37.7023 15.2648 35.3704 13.0282 35.6125 9.9465C35.8329 7.16342 38.2514 5.17663 41.1107 5.43229C43.9759 5.68991 45.7765 7.99483 45.6899 10.5749C45.5935 13.4283 43.1829 15.5088 40.3786 15.3331ZM40.6738 13.1511C42.2265 13.1238 43.3127 11.9294 43.2852 10.2822C43.2596 8.76769 42.0828 7.58108 40.6207 7.59474C39.1231 7.6084 37.966 8.86333 38.0074 10.4325C38.0487 12.025 39.1782 13.1765 40.6738 13.1511Z" fill="black"/>
<path d="M110.634 15.334C107.963 15.533 105.586 13.5092 105.358 10.8393C105.116 8.03667 107.172 5.61661 109.955 5.42339C112.733 5.23018 115.191 7.17599 115.396 9.73072C115.648 12.8651 113.745 15.1037 110.634 15.3359V15.334ZM110.431 13.1481C111.984 13.113 113.076 11.9068 113.036 10.2713C113.001 8.76074 111.808 7.57218 110.354 7.59365C108.855 7.61707 107.707 8.87394 107.751 10.4431C107.794 12.0317 108.933 13.1813 110.429 13.1481H110.431Z" fill="black"/>
<path d="M166.08 19.9916C166.726 18.7288 167.316 17.5734 167.906 16.42C168.357 15.5359 168.821 14.6596 169.247 13.7638C169.325 13.5979 169.319 13.3188 169.229 13.1588C167.928 10.8304 166.608 8.51185 165.291 6.19132C165.212 6.05275 165.138 5.91028 164.998 5.64876C165.598 5.64876 166.116 5.7034 166.617 5.63509C167.348 5.53751 167.717 5.84197 168.042 6.47041C168.778 7.90098 169.599 9.28862 170.386 10.6938C170.455 10.8187 170.535 10.9358 170.634 11.0978C171.49 9.39205 172.33 7.74094 173.145 6.07812C173.304 5.75414 173.485 5.62338 173.853 5.64095C174.467 5.67217 175.083 5.64876 175.8 5.64876C175.412 6.41966 175.075 7.09689 174.735 7.77217C172.743 11.7009 170.746 15.6276 168.766 19.5622C168.603 19.8862 168.422 20.015 168.058 19.9994C167.438 19.9701 166.818 19.9916 166.084 19.9916H166.08Z" fill="black"/>
<path d="M164.28 15.0604H162.048C162.048 14.8847 162.048 14.713 162.048 14.5413C162.048 12.8492 162.064 11.159 162.04 9.46691C162.018 7.95632 160.576 7.08783 159.293 7.78848C158.73 8.09489 158.411 8.58086 158.398 9.20734C158.36 10.9463 158.354 12.6852 158.337 14.4242C158.337 14.6174 158.337 14.8125 158.337 15.0448H156.058V5.69239H158.181C158.203 5.87194 158.224 6.05735 158.254 6.29545C158.453 6.15688 158.614 6.03003 158.789 5.92464C160.97 4.61116 163.969 5.91488 164.232 8.47156C164.457 10.6379 164.278 12.8452 164.278 15.0604H164.28Z" fill="black"/>
<path d="M73.2342 6.30026C73.9289 5.72647 74.6865 5.4064 75.578 5.4142C77.4868 5.42982 79.1556 6.8155 79.2638 8.71057C79.3819 10.7852 79.315 12.8696 79.3248 14.9501C79.3248 14.9793 79.2992 15.0086 79.2736 15.0613H77.0204C77.0204 14.8798 77.0204 14.708 77.0204 14.5363C77.0204 12.8774 77.0283 11.2204 77.0165 9.5615C77.0086 8.29291 76.2195 7.50249 75.0545 7.56689C74.1277 7.61764 73.4251 8.23631 73.374 9.1575C73.309 10.3246 73.3149 11.4956 73.2992 12.6646C73.2893 13.4434 73.2992 14.224 73.2992 15.0437H71.0519V5.68939H73.1418C73.1673 5.85918 73.1969 6.05435 73.2323 6.30026H73.2342Z" fill="black"/>
<path d="M53.1462 7.34535C52.4358 7.60883 51.751 7.86254 51.0445 8.12212C50.7985 7.69665 50.4935 7.40195 49.976 7.48977C49.6217 7.55028 49.299 7.74349 49.3167 8.09479C49.3305 8.34656 49.5352 8.692 49.7556 8.81105C50.342 9.12722 50.9894 9.32825 51.5994 9.59953C52.9219 10.1889 53.6283 11.2936 53.5319 12.5895C53.4335 13.8991 52.3571 15.0505 50.9422 15.2691C49.5155 15.4897 48.2246 15.2047 47.2977 14.0025C47.0497 13.6824 46.908 13.2804 46.668 12.8198C47.4866 12.6812 48.1695 12.5524 48.8582 12.4607C48.9468 12.449 49.0884 12.5992 49.1554 12.7046C49.4269 13.134 49.8087 13.3272 50.3125 13.2823C50.7316 13.2452 51.0307 13.0267 51.1232 12.6188C51.2197 12.1894 51.0602 11.842 50.6391 11.6624C50.0094 11.3912 49.364 11.157 48.7362 10.8779C47.1147 10.1558 46.4633 8.52611 47.1954 7.06041C47.7759 5.89526 49.3207 5.18876 50.7041 5.45419C51.9261 5.68839 52.7625 6.31877 53.1482 7.3434L53.1462 7.34535Z" fill="black"/>
<path d="M104.244 8.45034C102.182 7.31447 100.767 7.37887 99.7276 8.61233C98.905 9.58816 98.9109 11.1807 99.7394 12.1722C100.757 13.3881 102.219 13.4505 104.238 12.3127C104.238 13.0934 104.25 13.8291 104.224 14.5649C104.22 14.6644 104.053 14.7913 103.935 14.8479C101.082 16.2063 97.3642 14.7074 96.7975 11.2764C96.2425 7.92729 98.722 5.23984 102.144 5.4272C102.339 5.43696 102.532 5.4799 102.725 5.51308C104.128 5.75899 104.244 5.89365 104.244 7.26568V8.45034Z" fill="black"/>
<path d="M2.23156 15.0591H0V0.00390625H2.23156V15.0591Z" fill="black"/>
<path d="M9.53632 0H11.7443V15.0532H9.53632V0Z" fill="black"/>
<path d="M16.477 19.9679H14.2966V5.75781H16.477V19.9679Z" fill="black"/>
<path d="M35.0832 7.74565C34.7408 7.74565 34.4161 7.72614 34.0953 7.74956C32.7965 7.84519 31.9149 8.68246 31.8638 9.9608C31.8028 11.4538 31.8165 12.9488 31.7988 14.4438C31.7969 14.637 31.7988 14.8283 31.7988 15.0527H29.5338V5.68664H31.665V6.81081C32.6549 5.79984 33.7332 5.33925 35.0852 5.62029V7.74565H35.0832Z" fill="black"/>
<path d="M4.75433 5.68359H7.00754V15.0633H4.75433V5.68359Z" fill="black"/>
<path d="M5.87803 4.36305C5.01807 4.3611 4.40607 3.74047 4.41197 2.87979C4.4159 2.03471 5.05349 1.41408 5.90952 1.41799C6.75176 1.42189 7.38935 2.06984 7.38345 2.91101C7.37558 3.75999 6.7498 4.36696 5.88 4.36305H5.87803Z" fill="black"/>
<path d="M15.4025 4.35939C14.5859 4.35939 13.9424 3.71729 13.9483 2.90735C13.9542 2.10326 14.6154 1.46312 15.4281 1.47678C16.2212 1.49044 16.8568 2.12473 16.8647 2.90735C16.8725 3.70363 16.2133 4.35939 15.4025 4.35939Z" fill="black"/>
</svg>
