<svg width="191" height="72" viewBox="0 0 191 72" fill="none" xmlns="http://www.w3.org/2000/svg">
<g clip-path="url(#clip0_321_150)">
<path d="M98.8239 39.9766H74.2109C74.1899 42.7707 76.3451 45.5015 79.4761 46.7473C83.9129 48.5138 87.3037 47.4159 91.6492 42.7426C91.8739 42.8481 92.1477 42.9326 92.3793 43.0804C94.2467 44.2769 96.1001 45.4804 98.0798 46.7613C96.9144 49.105 95.2366 50.8716 93.1656 52.2018C86.721 56.3473 80.0167 56.6288 73.5089 52.6171C67.0994 48.6616 64.6844 42.4751 65.5198 35.1344C66.4746 26.7308 71.6766 21.1496 79.3427 19.8124C89.1711 18.0951 98.1079 25.1543 98.8099 35.2399C98.9152 36.7391 98.8239 38.2522 98.8239 39.9836V39.9766ZM90.1188 33.6845C89.852 30.0176 86.6508 27.0687 82.9441 26.9138C78.2897 26.7168 74.7725 29.3842 74.1126 33.6845H90.1188Z" fill="black"/>
<path d="M144.048 55.292C134.501 55.0457 126.182 46.98 127.045 35.8668C127.831 25.8305 136.459 18.6657 146.66 19.5876C156.881 20.5167 163.305 28.8287 162.996 38.1331C162.652 48.4228 154.052 55.9255 144.048 55.292ZM145.101 47.4234C150.64 47.3249 154.515 43.0176 154.417 37.0774C154.326 31.6158 150.128 27.3366 144.912 27.3859C139.569 27.4352 135.441 31.9607 135.589 37.6193C135.736 43.3624 139.766 47.5149 145.101 47.4234Z" fill="black"/>
<path d="M189.596 26.4839C187.062 27.434 184.619 28.349 182.098 29.285C181.221 27.7507 180.133 26.688 178.286 27.0047C177.023 27.2229 175.871 27.9196 175.935 29.1865C175.984 30.0944 176.714 31.3402 177.5 31.7695C179.592 32.9097 181.902 33.6346 184.078 34.6129C188.796 36.7384 191.316 40.722 190.972 45.3953C190.621 50.1179 186.781 54.2704 181.733 55.0586C176.644 55.854 172.038 54.8264 168.732 50.4909C167.847 49.3366 167.342 47.8868 166.485 46.2258C169.406 45.7261 171.842 45.2616 174.299 44.9308C174.615 44.8886 175.12 45.4305 175.359 45.8105C176.328 47.3589 177.69 48.0557 179.487 47.8938C180.982 47.7601 182.049 46.9718 182.379 45.5009C182.723 43.9525 182.155 42.6997 180.652 42.0522C178.406 41.0739 176.103 40.2293 173.864 39.2229C168.079 36.6188 165.755 30.7419 168.367 25.4563C170.438 21.2545 175.949 18.7067 180.884 19.6639C185.243 20.5085 188.227 22.7818 189.603 26.4768L189.596 26.4839Z" fill="black"/>
<path d="M7.96097 54.3136H0V0.0214844H7.96097V54.3136Z" fill="black"/>
<path d="M34.0205 0H41.8972V54.285H34.0205V0Z" fill="black"/>
<path d="M58.7804 72.0004H51.002V20.7559H58.7804V72.0004Z" fill="black"/>
<path d="M125.157 27.934C123.936 27.934 122.778 27.8636 121.633 27.9481C117 28.2929 113.855 31.3123 113.672 35.9223C113.455 41.3064 113.504 46.6976 113.441 52.0888C113.434 52.7856 113.441 53.4753 113.441 54.2847H105.36V20.5088H112.963V24.5627C116.494 20.917 120.342 19.256 125.164 20.2695V27.934H125.157Z" fill="black"/>
<path d="M16.9609 20.4941H24.9991V54.3194H16.9609V20.4941Z" fill="black"/>
<path d="M20.9695 15.7378C17.9016 15.7307 15.7183 13.4926 15.7394 10.3888C15.7534 7.3413 18.028 5.10318 21.0818 5.11725C24.0865 5.13133 26.3611 7.46799 26.34 10.5014C26.3119 13.563 24.0795 15.7519 20.9765 15.7378H20.9695Z" fill="black"/>
<path d="M54.9479 15.7223C52.0345 15.7223 49.7388 13.4067 49.7599 10.4859C49.781 7.58618 52.1398 5.27768 55.0391 5.32695C57.8683 5.37621 60.1358 7.6636 60.1639 10.4859C60.192 13.3574 57.8402 15.7223 54.9479 15.7223Z" fill="black"/>
</g>
<defs>
<clipPath id="clip0_321_150">
<rect width="191" height="72" fill="white"/>
</clipPath>
</defs>
</svg>
