<svg width="286" height="108" viewBox="0 0 286 108" fill="none" xmlns="http://www.w3.org/2000/svg">
<g clip-path="url(#clip0_329_248)">
<path d="M147.978 59.9649H111.123C111.091 64.1561 114.318 68.2523 119.007 70.1209C125.65 72.7707 130.728 71.1238 137.235 64.1139C137.571 64.2722 137.981 64.3989 138.328 64.6206C141.124 66.4153 143.899 68.2206 146.864 70.142C145.119 73.6576 142.606 76.3074 139.505 78.3027C129.855 84.5209 119.816 84.9432 110.072 78.9256C100.474 72.9925 96.858 63.7127 98.1089 52.7015C99.5386 40.0963 107.328 31.7244 118.807 29.7186C133.524 27.1426 146.906 37.7315 147.957 52.8599C148.115 55.1086 147.978 57.3784 147.978 59.9754V59.9649ZM134.943 50.5268C134.544 45.0265 129.75 40.603 124.2 40.3708C117.23 40.0752 111.964 44.0763 110.976 50.5268H134.943Z" fill="white"/>
<path d="M215.696 82.9381C201.4 82.5686 188.943 70.47 190.236 53.8002C191.413 38.7457 204.333 27.9985 219.607 29.3815C234.912 30.775 244.53 43.2431 244.068 57.1997C243.553 72.6343 230.676 83.8882 215.696 82.9381ZM217.273 71.1351C225.567 70.9873 231.369 64.5263 231.222 55.6161C231.086 47.4237 224.799 41.0049 216.989 41.0788C208.989 41.1527 202.808 47.941 203.029 56.429C203.25 65.0436 209.284 71.2724 217.273 71.1351Z" fill="white"/>
<path d="M283.898 39.7268C280.103 41.152 276.445 42.5244 272.671 43.9285C271.357 41.6271 269.727 40.0329 266.963 40.508C265.071 40.8353 263.347 41.8804 263.441 43.7807C263.515 45.1426 264.608 47.0112 265.785 47.6552C268.918 49.3655 272.376 50.4529 275.635 51.9203C282.699 55.1086 286.473 61.084 285.958 68.0939C285.432 75.1778 279.682 81.4065 272.124 82.5889C264.503 83.7819 257.607 82.2406 252.656 75.7373C251.331 74.006 250.574 71.8312 249.292 69.3397C253.665 68.5901 257.313 67.8933 260.992 67.3972C261.465 67.3338 262.222 68.1467 262.579 68.7168C264.03 71.0394 266.069 72.0845 268.76 71.8417C270.999 71.6411 272.597 70.4587 273.091 68.2523C273.606 65.9297 272.755 64.0505 270.505 63.0793C267.141 61.6118 263.693 60.345 260.34 58.8353C251.678 54.9291 248.199 46.1139 252.109 38.1854C255.21 31.8828 263.462 28.0611 270.852 29.4969C277.38 30.7637 281.848 34.1737 283.908 39.7162L283.898 39.7268Z" fill="white"/>
<path d="M11.9206 81.4694H0V0.03125H11.9206V81.4694Z" fill="white"/>
<path d="M50.9414 0H62.7359V81.4276H50.9414V0Z" fill="white"/>
<path d="M88.0174 108H76.3701V31.1328H88.0174V108Z" fill="white"/>
<path d="M187.408 41.901C185.578 41.901 183.844 41.7954 182.13 41.9221C175.193 42.4394 170.483 46.9684 170.21 53.8834C169.884 61.9596 169.958 70.0464 169.863 78.1332C169.852 79.1784 169.863 80.213 169.863 81.4271H157.764V30.7632H169.148V36.8441C174.436 31.3755 180.196 28.884 187.418 30.4042V41.901H187.408Z" fill="white"/>
<path d="M25.3975 30.7422H37.4337V81.48H25.3975V30.7422Z" fill="white"/>
<path d="M31.399 23.6067C26.8053 23.5961 23.5361 20.2389 23.5676 15.5832C23.5886 11.012 26.9945 7.65477 31.5672 7.67588C36.0664 7.69699 39.4723 11.202 39.4407 15.7521C39.3987 20.3445 36.0559 23.6278 31.4096 23.6067H31.399Z" fill="white"/>
<path d="M82.2774 23.5844C77.9149 23.5844 74.4775 20.111 74.509 15.7298C74.5405 11.3803 78.0726 7.9175 82.414 7.9914C86.6504 8.0653 90.0457 11.4964 90.0878 15.7298C90.1298 20.0371 86.6083 23.5844 82.2774 23.5844Z" fill="white"/>
</g>
<defs>
<clipPath id="clip0_329_248">
<rect width="286" height="108" fill="white"/>
</clipPath>
</defs>
</svg>
